<?xml version="1.0" encoding="UTF-8"?>
<svg id="Layer_1" xmlns="http://www.w3.org/2000/svg" version="1.1" viewBox="0 0 288 210.2">
  <!-- Generator: Adobe Illustrator 29.3.1, SVG Export Plug-In . SVG Version: 2.1.0 Build 151)  -->
  <defs>
    <style>
      .st0 {
        fill: #6d7b61;
      }
    </style>
  </defs>
  <path class="st0" d="M51.2,206l-13.2-154.6c-.3-4.5-.9-9-1.6-13.4-.7-4.4-2.1-8.2-4.2-11.3-2.1-3.1-5.2-4.9-9.4-5.5-.9,0-1.4-.3-1.6-.9-.2-.6,0-1.3.3-1.9.3-.7.9-1,1.6-1,7.1.3,14.9.6,23.5.6,8.6,0,17.2,0,25.8,0,8.7,0,16.3-.3,22.9-.6,1,0,1.6.3,1.8.9.2.6,0,1.2-.3,1.8-.3.6-1,1-2.1,1.2-4.8.3-8.6,1.6-11.2,3.6-2.6,2.1-4.3,4.9-5.2,8.6-.9,3.6-1.2,8.3-1,14l5.7,108.1h.8l47.5-75.3-1.6-28.8c-.2-4.5-.6-9-1.4-13.4-.8-4.4-2.2-8.2-4.3-11.3-2.1-3.1-5.2-4.9-9.4-5.5-.7,0-1.1-.3-1.3-.9-.2-.6,0-1.3.3-1.9.3-.7.9-1,1.6-1,7.1.3,15.1.6,23.9.6,8.8,0,17.7,0,26.6,0,8.9,0,16.8-.3,23.8-.6,1,0,1.6.3,1.8.9.2.6,0,1.2-.3,1.8-.3.6-1,1-2.1,1.2-5.7.2-10,1.3-12.9,3.5-2.9,2.2-4.8,5.1-5.7,8.8-1,3.7-1.3,8.4-1.2,13.9l4.2,108.8h.8l67.8-101.6c6.8-9.9,9.4-17.7,7.9-23.6-1.5-5.9-6.5-9.2-14.9-9.9-.7,0-1.2-.3-1.4-.9-.3-.6-.2-1.3.3-1.9.4-.7,1-1,1.7-1,4,.2,9,.3,15.2.3h18.6c6.2,0,11.7,0,16.4-.3.9,0,1.4.3,1.6.9.2.6,0,1.2-.3,1.8-.3.6-1,1-1.8,1.2-6.9,1.6-13.5,5.6-19.7,12.1-6.2,6.5-12.2,14-17.9,22.5l-75.9,111.7-22.9,38.2c-.9,1-1.9,1.8-3.1,2.2-1.2.4-2.3.5-3.2.1-1-.3-1.4-1-1.4-2.1l-9.1-117.9-49.9,78.7-23.1,39c-.7,1-1.7,1.8-3,2.2-1.3.4-2.4.5-3.4.1-1-.3-1.4-1-1.4-2.1Z"/>
</svg>